<svg id="Layer_1" data-name="Layer 1" xmlns="http://www.w3.org/2000/svg" viewBox="0 0 1080 1080"><defs><style>.cls-1{font-size:82.8px;}.cls-1,.cls-4{fill:#433f3c;}.cls-1,.cls-5{font-family:Montserrat-SemiBold, Montserrat;font-weight:600;}.cls-2{font-family:Montserrat-Bold, Montserrat;font-weight:700;}.cls-3,.cls-5{fill:#6b8679;}.cls-5{font-size:36.44px;}</style></defs><text class="cls-1" transform="translate(176.41 694.55)">ARBI<tspan class="cls-2" x="344.46" y="0">TECH</tspan></text><rect class="cls-3" x="435.64" y="524.43" width="194.43" height="40.67" rx="3.39"/><path class="cls-4" d="M649.1,361.39V564.53c0,2.43,0,4.87,0,7.3a11.55,11.55,0,0,1-11.46,11.41H425.84a11.53,11.53,0,0,1-11.41-11.46c0-2.77,0-5.55,0-8.32V367.68c0-2.61-.71-7,1-9.23a18.84,18.84,0,0,1,2.66-2.38l5.38-4.55,18.76-15.87,25.24-21.36,26.25-22.21L516,273.25l12.82-10.84c1.47-1.25,2.84-2.41,5-2.09,1.59.24,2.63,1.32,3.77,2.31L550.7,274,573,293.31l26.05,22.56,24.67,21.37,17.75,15.37,4.56,3.95c1.54,1.33,3,2.55,3,4.83.12,3.61,5.73,3.63,5.61,0a11.6,11.6,0,0,0-4.46-8.61l-4.66-4-18-15.57-24.81-21.49-26.39-22.85-22.35-19.36L541.28,258.4c-2.12-1.84-4.28-3.36-7.21-3.67-3.51-.37-6.34,1.27-8.88,3.42L512.8,268.63l-22.07,18.68-26.57,22.48L438.62,331.4l-19.09,16.15-5.4,4.58A20.29,20.29,0,0,0,411,355c-2.76,3.54-2.23,8-2.23,12.23v196.8c0,2.58,0,5.17,0,7.75.1,8.07,5.92,15.42,14,16.76a27.56,27.56,0,0,0,4.53.28H637.68a17.19,17.19,0,0,0,16.75-14c.53-3.13.28-6.46.28-9.61V361.39C654.71,357.78,649.1,357.77,649.1,361.39Z"/><polygon class="cls-4" points="496.58 508.89 464.33 509.26 601.56 344.54 619.65 359.44 496.58 508.89"/><path class="cls-3" d="M437.15,475.41V372.27c0-1.38.12-2.82,0-4.19v-.19l-.82,2,9.91-8,23.6-19.15,28.72-23.3,24.67-20,8.18-6.64c1.27-1,2.64-2,3.86-3.13l.17-.14h-4l25.15,22,3.5,3.07a2.88,2.88,0,0,0,4,0,2.84,2.84,0,0,0,0-4l-25.14-22-3.5-3.07a2.92,2.92,0,0,0-4,0L523,292.39l-20.92,17-26.24,21.28-24.73,20.06-16.06,13c-.87.71-1.85,1.37-2.64,2.15-1.15,1.12-.85,3.14-.85,4.61V475.41c0,3.62,5.62,3.62,5.62,0Z"/><path class="cls-3" d="M625.17,455v51l2.81-2.81H577c-3.61,0-3.62,5.62,0,5.62h51a2.86,2.86,0,0,0,2.81-2.81V455c0-3.61-5.62-3.62-5.62,0Z"/><polygon class="cls-4" points="446.93 509.78 451.43 509.78 593.9 338.28 590.75 335.63 446.93 509.78"/><text class="cls-5" transform="translate(368.61 747.62)">BUILDERS</text></svg>