<svg id="Layer_1" data-name="Layer 1" xmlns="http://www.w3.org/2000/svg" viewBox="0 0 200 50"><defs><style>.cls-1{font-size:19.27px;font-family:Montserrat-Bold, Montserrat;font-weight:700;}.cls-1,.cls-4{fill:#433f3c;}.cls-2{font-size:6.84px;font-family:Montserrat-SemiBold, Montserrat;font-weight:600;}.cls-2,.cls-3{fill:#6b8679;}</style></defs><text class="cls-1" transform="translate(63.82 29.23)">ARBITECH</text><text class="cls-2" transform="translate(92.89 39.46)">BUILDERS</text><rect class="cls-3" x="29.36" y="36.31" width="21.1" height="4.41" rx="0.68"/><path class="cls-4" d="M52.53,18.62V40.28c0,1.14.06,2.3-1.49,2.42-1.36.1-2.76,0-4.12,0H33c-1.42,0-2.87.07-4.29,0-.8-.05-1.49-.3-1.62-1.27a5.9,5.9,0,0,1,0-.94V21.6a12.83,12.83,0,0,1,0-3c.12-.49.62-.78,1-1.08l2-1.68,5.37-4.54A44.34,44.34,0,0,1,39.33,8c1-.67,1.79.5,2.54,1.15l9.67,8.37c.4.35.88.63,1,1.18.08.38.67.22.58-.16-.25-1.19-2-2.17-2.84-2.91l-5.77-5c-1.24-1.07-2.43-2.28-3.75-3.25-1.08-.79-1.87.19-2.67.87L27.76,17c-.73.62-1.28,1-1.31,2-.06,1.61,0,3.23,0,4.84V38.48a18.07,18.07,0,0,0,0,3.29c.3,1.58,1.76,1.53,3,1.53h20c1.11,0,2.57.25,3.3-.8.57-.82.33-2.3.33-3.25V18.62A.31.31,0,0,0,52.53,18.62Z"/><polygon class="cls-4" points="35.97 34.63 32.47 34.67 47.37 16.79 49.33 18.41 35.97 34.63"/><path class="cls-3" d="M29.52,31V20c0-.21,0-.43,0-.64s-.22.18,0,.05A9.67,9.67,0,0,0,31,18.27l5.37-4.36,3.82-3.1h-.43l3.11,2.73c.29.26.73-.17.43-.43l-3.11-2.73a.31.31,0,0,0-.43,0l-8.83,7.17c-.63.5-1.93,1.14-2,2a56.49,56.49,0,0,0,0,5.82V31a.31.31,0,0,0,.61,0Z"/><path class="cls-3" d="M49.93,28.77V34.3l.3-.3H44.7a.31.31,0,0,0,0,.61h5.53a.31.31,0,0,0,.31-.31V28.77a.31.31,0,0,0-.61,0Z"/><polygon class="cls-4" points="30.59 34.72 31.07 34.72 46.54 16.11 46.19 15.82 30.59 34.72"/></svg>